<?xml version="1.0" standalone="no"?>
<!DOCTYPE svg PUBLIC "-//W3C//DTD SVG 20010904//EN"
 "http://www.w3.org/TR/2001/REC-SVG-20010904/DTD/svg10.dtd">
<svg version="1.0" xmlns="http://www.w3.org/2000/svg"
 width="840.000000pt" height="377.000000pt" viewBox="0 0 840.000000 377.000000"
 preserveAspectRatio="xMidYMid meet">

<g transform="translate(0.000000,377.000000) scale(0.100000,-0.100000)"
fill="#000000" stroke="none">
<path d="M4710 3334 c-238 -64 -418 -271 -446 -513 l-7 -61 91 0 90 0 6 54
c10 75 64 182 122 239 27 26 78 62 114 80 61 30 71 32 175 32 103 0 114 -2
177 -32 88 -41 160 -113 201 -201 30 -63 32 -74 32 -177 0 -105 -2 -113 -34
-177 -42 -85 -119 -159 -208 -201 l-68 -32 -1377 -3 -1378 -2 0 -90 0 -90
1353 0 c1505 0 1426 -3 1572 69 135 67 252 200 296 340 29 92 36 237 15 321
-44 177 -161 324 -317 398 -46 22 -108 45 -137 51 -73 15 -206 13 -272 -5z"/>
<path d="M2200 1890 l0 -90 1365 0 1365 0 0 90 0 90 -1365 0 -1365 0 0 -90z"/>
<path d="M2200 1510 l0 -90 1720 0 c1220 0 1734 -3 1772 -11 234 -49 379 -296
309 -527 -34 -114 -116 -206 -231 -261 -49 -23 -67 -26 -165 -26 -106 0 -114
2 -180 34 -125 62 -217 186 -231 312 l-7 59 -88 0 -89 0 0 -33 c0 -59 39 -188
77 -256 54 -98 153 -191 255 -239 98 -47 161 -62 266 -62 310 0 567 242 589
554 20 290 -186 561 -472 621 -60 13 -317 15 -1797 15 l-1728 0 0 -90z"/>
</g>
</svg>
